<?xml version="1.0" encoding="UTF-8"?>
<svg width="19px" height="14px" viewBox="0 0 19 14" version="1.1" xmlns="http://www.w3.org/2000/svg" xmlns:xlink="http://www.w3.org/1999/xlink">
    <!-- Generator: sketchtool 58 (101010) - https://sketch.com -->
    <title>A5C371E1-B7E1-41CD-9619-25C29D1F6568</title>
    <desc>Created with sketchtool.</desc>
    <g id="Page-1" stroke="none" stroke-width="1" fill="none" fill-rule="evenodd">
        <g id="UI-Kit-module-5" transform="translate(-456.000000, -1207.000000)" fill="#FFFFFF" fill-rule="nonzero">
            <g id="Checkboxes" transform="translate(130.000000, 960.000000)">
                <g id="Checked" transform="translate(0.000000, 239.000000)">
                    <path d="M344.65678,9.93259586 L342.989714,8.32992116 C342.76113,8.11000124 342.483128,8 342.156352,8 C341.829276,8 341.551274,8.11000124 341.32269,8.32992116 L333.281287,16.0723986 L329.677396,12.5959054 C329.448554,12.3759029 329.170724,12.2660255 328.843948,12.2660255 C328.516958,12.2660255 328.239128,12.3759029 328.010286,12.5959054 L326.34322,14.1986214 C326.114378,14.4185826 326,14.6857638 326,15.0000826 C326,15.3141536 326.114378,15.5815825 326.34322,15.8015025 L330.780559,20.0673629 L332.447754,21.6700376 C332.676467,21.8901226 332.954383,22 333.281287,22 C333.608063,22 333.885979,21.8898337 334.114821,21.6700376 L335.781973,20.0673629 L344.65678,11.5353944 C344.885407,11.3153919 345,11.048252 345,10.7339332 C345,10.4197796 344.885407,10.1525983 344.65678,9.93259586 Z" id="Path-Copy-3-1"></path>
                </g>
            </g>
        </g>
    </g>
</svg>